<?xml version="1.0" encoding="UTF-8" standalone="no"?>
<svg
   width="16"
   height="16"
   version="1.1"
   id="svg134"
   sodipodi:docname="camera_man.svg"
   inkscape:version="1.2.2 (732a01da63, 2022-12-09)"
   xmlns:inkscape="http://www.inkscape.org/namespaces/inkscape"
   xmlns:sodipodi="http://sodipodi.sourceforge.net/DTD/sodipodi-0.dtd"
   xmlns="http://www.w3.org/2000/svg"
   xmlns:svg="http://www.w3.org/2000/svg">
  <defs
     id="defs138" />
  <sodipodi:namedview
     id="namedview136"
     pagecolor="#ffffff"
     bordercolor="#666666"
     borderopacity="1.0"
     inkscape:showpageshadow="2"
     inkscape:pageopacity="0.0"
     inkscape:pagecheckerboard="0"
     inkscape:deskcolor="#d1d1d1"
     showgrid="true"
     inkscape:zoom="70.268736"
     inkscape:cx="5.7778184"
     inkscape:cy="3.4652679"
     inkscape:window-width="1920"
     inkscape:window-height="1053"
     inkscape:window-x="-9"
     inkscape:window-y="-9"
     inkscape:window-maximized="1"
     inkscape:current-layer="svg134">
    <inkscape:grid
       type="xygrid"
       id="grid954"
       dotted="false" />
  </sodipodi:namedview>
  <path
     fill="#e0e0e0"
     d="M 6,0 C 4.8954305,0 4,0.8954305 4,2 v 4 c 0,1.104569 0.8954305,2 2,2 h 4 c 1.104569,0 2,-0.895431 2,-2 V 2 C 12,0.8954305 11.104569,0 10,0 Z M 5,3 C 5,1.6666672 6.9481426,1.667676 7,3 6.9780469,4.5384562 5,4.5513967 5,3 Z M 9,3 C 9,1.6666672 10.966547,1.6670869 11,3 10.957921,4.4982046 9,4.4708936 9,3 Z M 7,6 H 9 C 9,7.333333 7,7.333333 7,6 Z m -6,7 v 3 h 3 v -3 z m 5,0 v 3 h 3 v -3 z m 6,0 v 3 h 3 v -3 z"
     id="path132"
     sodipodi:nodetypes="ssssssssscccccccccccccccccccccccc" />
  <path
     fill="#e0e0e0"
     d="M 6,0 C 4.8954305,0 4,0.8954305 4,2 v 4 c 0,1.104569 0.8954305,2 2,2 h 4 c 1.104569,0 2,-0.895431 2,-2 V 2 C 12,0.8954305 11.104569,0 10,0 Z M 5,3 C 4.9895325,1.6667083 7.0038305,1.6553878 7,3 7.0085211,4.3674829 5.0026397,4.2817978 5,3 Z M 9,3 C 8.9799777,1.6668175 10.993659,1.6666822 11,3 10.978047,4.3371983 9.0201258,4.340076 9,3 Z M 7,6 H 9 C 9,7.333333 7,7.333333 7,6 Z m -6,7 v 3 h 3 v -3 z m 1,-3 v 2 h 1 v -2 z m 10,3 v 3 h 3 V 13 Z M 7,9 v 3 H 8 V 9 Z m 6,1 v 2 h 1 V 10 Z M 3,10 v 1 h 10 v -1 z"
     id="path3134"
     sodipodi:nodetypes="sssssssssccccccccccccccccccccccccccccccccccccccc" />
</svg>
